<?xml version="1.0" encoding="UTF-8"?>
<svg width="167px" height="31px" viewBox="0 0 167 31" version="1.1" xmlns="http://www.w3.org/2000/svg" xmlns:xlink="http://www.w3.org/1999/xlink">
    <title>编组 2</title>
    <defs>
        <path d="M13.8306861,0 C13.4743245,0 13.1460116,0.202632387 12.9743635,0.528193423 L12.9743635,0.528193423 L0.122092988,24.9336529 C-0.235467241,25.6115094 0.23512661,26.440903 0.977816244,26.440903 L0.977816244,26.440903 L6.70069776,26.440903 C7.07048432,26.440903 7.40850639,26.2231544 7.57416118,25.8784795 L7.57416118,25.8784795 L8.82532232,23.269119 C8.99097711,22.9244441 9.32899918,22.7065705 9.69878574,22.7065705 L9.69878574,22.7065705 L17.1593644,22.7065705 C17.635592,22.7065705 18.0426569,23.0646127 18.122128,23.5538288 L18.122128,23.5538288 L18.4545164,25.5936448 C18.5339875,26.0828609 18.9411723,26.440903 19.41728,26.440903 L19.41728,26.440903 L25.7874378,26.440903 C26.4133779,26.440903 26.8772593,25.8357543 26.739773,25.1999983 L26.739773,25.1999983 L21.4673479,0.793789265 C21.3677392,0.329433788 20.9721815,0 20.515612,0 L20.515612,0 L13.8306861,0 Z M15.7535762,8.75042104 L17.004138,16.4452048 L12.0697349,16.4452048 L15.7535762,8.75042104 Z" id="path-1"></path>
    </defs>
    <g id="页面-1" stroke="none" stroke-width="1" fill="none" fill-rule="evenodd">
        <g id="Homepage" transform="translate(-347.000000, -91.000000)">
            <g id="编组-7" transform="translate(349.000000, 84.000000)">
                <g id="编组-2" transform="translate(0.000000, 8.000000)">
                    <g id="编组" transform="translate(31.809824, 0.000000)" stroke="#000000">
                        <g fill="#FACF36" id="Fill-1" stroke-width="1.8">
                            <path d="M6.72770002,28.6098394 C6.43712078,28.667368 6.00856953,28.7466154 5.44157414,28.8482278 C4.87387061,28.9490645 4.30002973,29 3.72005152,29 C3.13936516,29 2.61816374,28.9565626 2.15680134,28.8699465 C1.69484882,28.783201 1.30595419,28.6098394 0.98929128,28.3497323 C0.672746397,28.0896252 0.428433232,27.7360502 0.257177965,27.2875853 C0.0853325693,26.8400253 0,26.2547844 0,25.5319918 L0,0.390160617 C0.289989105,0.332631964 0.718422336,0.253384628 1.28612587,0.151772221 C1.85323928,0.0509354814 2.42708016,0 3.0076485,0 C3.58774473,0 4.10894615,0.0434373649 4.57089868,0.130053539 C5.03214305,0.216798991 5.42174583,0.390160617 5.73840874,0.650396972 C6.05495362,0.910374772 6.29855863,1.26472542 6.47052205,1.71228541 C6.64177732,2.16062107 6.72770002,2.74599127 6.72770002,3.46800818 L6.72770002,28.6098394 Z"></path>
                        </g>
                        <g transform="translate(11.773475, 0.000000)" fill="#FACF36" id="Fill-3" stroke-width="1.8">
                            <path d="M6.72770002,28.6098394 C6.43712078,28.667368 6.00856953,28.7466154 5.44157414,28.8482278 C4.87387061,28.9490645 4.30002973,29 3.72005152,29 C3.13936516,29 2.61816374,28.9565626 2.15680134,28.8699465 C1.69484882,28.783201 1.30595419,28.6098394 0.98929128,28.3497323 C0.672746397,28.0896252 0.428433232,27.7360502 0.257177965,27.2875853 C0.0853325693,26.8400253 0,26.2547844 0,25.5319918 L0,0.390160617 C0.289989105,0.332631964 0.718422336,0.253384628 1.28612587,0.151772221 C1.85323928,0.0509354814 2.42708016,0 3.0076485,0 C3.58774473,0 4.10894615,0.0434373649 4.57089868,0.130053539 C5.03214305,0.216798991 5.42174583,0.390160617 5.73840874,0.650396972 C6.05495362,0.910374772 6.29855863,1.26472542 6.47052205,1.71228541 C6.64177732,2.16062107 6.72770002,2.74599127 6.72770002,3.46800818 L6.72770002,28.6098394 Z"></path>
                        </g>
                        <path d="M41.3944001,22.7638214 C41.7211518,22.8211451 42.1223466,22.8705708 42.5979844,22.9132451 C43.0729575,22.9560468 43.5186851,22.9773202 43.9351672,22.9773202 C44.9450667,22.9773202 45.8741423,22.8352849 46.7210646,22.5501952 C47.5678541,22.2658698 48.2958005,21.8240953 48.9051699,21.2261457 C49.5138746,20.6280687 49.9895124,19.8525432 50.3314185,18.8981677 C50.672793,17.9444292 50.8441449,16.7985927 50.8441449,15.4597665 C50.8441449,12.8968888 50.2201528,10.9681383 48.9720357,9.67211373 C47.7239186,8.37659874 46.0594522,7.72858647 43.9797001,7.72858647 C43.563218,7.72858647 43.1398233,7.74323585 42.709516,7.77126076 C42.2782781,7.79992259 41.8402607,7.84272427 41.3944001,7.89941101 L41.3944001,22.7638214 Z M43.8905014,29 C43.3849535,29 42.8054943,28.9853506 42.1522567,28.9571983 C41.4982216,28.9286639 40.8218535,28.8718497 40.124083,28.7863738 C39.425515,28.7008978 38.7270798,28.5942758 38.0291765,28.4661255 C37.3306084,28.3379753 36.6841505,28.1603993 36.0902014,27.9321237 C34.4556453,27.3341741 33.6385001,26.295087 33.6385001,24.8140981 L33.6385001,4.86673398 C33.6385001,4.26878438 33.8091873,3.80624604 34.1512264,3.47848202 C34.492468,3.15148232 34.9605285,2.88792081 35.5552751,2.68830704 C36.8326377,2.28984383 38.185108,2.02628232 39.6114896,1.89813207 C41.0378712,1.76998181 42.3152338,1.70590669 43.4449067,1.70590669 C45.7626106,1.70590669 47.8646956,1.97685658 49.7520923,2.5174825 C51.6386913,3.05887274 53.258093,3.891722 54.6106962,5.01628507 C55.9625019,6.14148506 57.0100216,7.55776192 57.7531225,9.26626213 C58.4955588,10.9747623 58.8673752,12.9970141 58.8673752,15.3316162 C58.8673752,17.6101685 58.5108462,19.59637 57.7977884,21.2902209 C57.0844646,22.9845812 56.0661904,24.4082465 54.7444278,25.5614714 C53.4218677,26.7148237 51.8394216,27.5763348 49.9972225,28.1457499 C48.1544917,28.7150377 46.1192725,29 43.8905014,29 L43.8905014,29 Z" id="Fill-5" stroke-width="1.68" fill="#FFFFFF"></path>
                        <path d="M70.7320692,17.8902833 C70.7320692,19.6349154 71.0838622,20.9719805 71.7882524,21.900967 C72.4918386,22.8304652 73.4733747,23.2949585 74.7316547,23.2949585 C75.9898007,23.2949585 76.955925,22.8231735 77.6300275,21.8796037 C78.303996,20.9359058 78.6411812,19.6061324 78.6411812,17.8902833 C78.6411812,16.1745621 78.296357,14.8522083 77.6075127,13.9225822 C76.9179983,12.9937236 75.9447712,12.5285907 74.6866252,12.5285907 C73.4283452,12.5285907 72.454448,12.9937236 71.7657377,13.9225822 C71.0762233,14.8522083 70.7320692,16.1745621 70.7320692,17.8902833 M86.4601002,17.8902833 C86.4601002,19.6636983 86.1750473,21.2434359 85.6062817,22.6301357 C85.036712,24.0174751 84.23583,25.1823541 83.2021615,26.1260519 C82.168493,27.0697497 80.9327277,27.7848468 79.4949997,28.2708313 C78.0568697,28.75656 76.4538995,29 74.6866252,29 C72.9186808,29 71.3162467,28.7426162 69.8782507,28.2278487 C68.4403887,27.7130812 67.2047574,26.9771325 66.1710889,26.0187234 C65.1374204,25.0610818 64.3356003,23.8954353 63.7669687,22.5229351 C63.197533,21.1501791 62.9131502,19.6061324 62.9131502,17.8902833 C62.9131502,16.2033451 63.197533,14.6733701 63.7669687,13.3006141 C64.3356003,11.9281139 65.1374204,10.763107 66.1710889,9.80482578 C67.2047574,8.8470563 68.4403887,8.11046798 69.8782507,7.59570046 C71.3162467,7.08093294 72.9186808,6.82354918 74.6866252,6.82354918 C76.4538995,6.82354918 78.0568697,7.08835255 79.4949997,7.61706383 C80.9327277,8.14667057 82.168493,8.88991095 83.2021615,9.84768044 C84.23583,10.8060895 85.036712,11.9709685 85.6062817,13.3435966 C86.1750473,14.7162247 86.4601002,16.2321281 86.4601002,17.8902833" id="Fill-7" stroke-width="1.8" fill="#FACF36"></path>
                        <path d="M103.665861,12.5826076 C102.940132,12.5826076 102.251143,12.6974504 101.598116,12.9264951 C100.945089,13.1561807 100.379305,13.4926342 99.9003756,13.9364965 C99.4215757,14.3808714 99.0365105,14.9322706 98.746738,15.5910786 C98.4563162,16.2503993 98.3114299,17.0240501 98.3114299,17.9117746 C98.3114299,19.6886336 98.8264514,21.0209894 99.8568838,21.9088421 C100.886667,22.7970793 102.142348,23.2410698 103.62237,23.2410698 C104.492986,23.2410698 105.247407,23.1409668 105.886023,22.9402483 C106.52412,22.7400424 107.089904,22.5252249 107.583763,22.2955393 C108.163958,22.6971046 108.599266,23.1335328 108.889687,23.6063621 C109.17959,24.0790633 109.325125,24.6452023 109.325125,25.3040103 C109.325125,26.4790982 108.759082,27.3883557 107.627385,28.0330647 C106.495428,28.6776455 104.928423,29 102.925851,29 C101.097505,29 99.4433866,28.7348106 97.9632354,28.2049444 C96.4830843,27.6750782 95.213252,26.9303945 94.154128,25.9701241 C93.0943548,25.0104947 92.2747606,23.8575807 91.6945663,22.510485 C91.1137228,21.1640302 90.8239502,19.6738937 90.8239502,18.0407164 C90.8239502,16.1497837 91.1354038,14.4950733 91.759869,13.0768418 C92.383685,11.6586102 93.2324902,10.4915972 94.3065442,9.5741366 C95.3798193,8.6575732 96.6204407,7.96992634 98.0285381,7.51132421 C99.4358566,7.05323477 100.923408,6.82354918 102.490543,6.82354918 C104.580099,6.82354918 106.190726,7.19640374 107.322553,7.94108747 C108.454379,8.68654024 109.020293,9.64604152 109.020293,10.8204885 C109.020293,11.3650946 108.889687,11.8735559 108.628606,12.346257 C108.367396,12.8190863 108.062563,13.2271884 107.714369,13.5710759 C107.220509,13.3421594 106.626164,13.1197796 105.929645,12.9049621 C105.232996,12.6901446 104.478056,12.5826076 103.665861,12.5826076" id="Fill-9" stroke-width="1.8" fill="#FACF36"></path>
                        <g transform="translate(113.688975, 6.823549)" fill="#FACF36" id="Fill-11" stroke-width="1.8">
                            <path d="M18.5012012,15.2543143 C18.5012012,17.4195209 17.6681954,19.1146288 16.0021838,20.3391282 C14.336303,21.5636276 11.8810867,22.1764508 8.63692728,22.1764508 C7.40931915,22.1764508 6.26931326,22.0909436 5.21717112,21.9201839 C4.16502897,21.7491695 3.26612537,21.4853841 2.52085257,21.1295924 C1.77557976,20.7738007 1.19060599,20.3251106 0.767238738,19.7836497 C0.343217738,19.2428259 0.131534112,18.6019676 0.131534112,17.8608198 C0.131534112,17.1771442 0.277450682,16.6003844 0.56993757,16.1302857 C0.861770709,15.6603144 1.21244118,15.268969 1.62207972,14.9552301 C2.46959872,15.4111838 3.44159135,15.8171839 4.53766537,16.1729756 C5.63373939,16.5295319 6.89756516,16.7070454 8.32992719,16.7070454 C9.23549902,16.7070454 9.93017172,16.5789757 10.4123763,16.3225814 C10.8945809,16.0661871 11.1358139,15.7242856 11.1358139,15.2971316 C11.1358139,14.8985226 10.9603479,14.5854208 10.6098082,14.3570617 C10.259007,14.1293397 9.67390248,13.944435 8.85593289,13.8015831 L7.54085327,13.5451888 C4.99803476,13.0610725 3.10530334,12.2994082 1.86331276,11.2590488 C0.62066842,10.2195814 0,8.73142397 0,6.79393937 C0,5.74045442 0.233649561,4.7857297 0.701471682,3.93116697 C1.1687708,3.0764768 1.82631062,2.3648934 2.67435261,1.79463271 C3.52174087,1.22513661 4.53766537,0.783710229 5.72134163,0.469971272 C6.90514864,0.156869478 8.21277553,0 9.64526831,0 C10.7261754,0 11.7420999,0.0787533205 12.6921266,0.234985636 C13.6416303,0.391855114 14.4677063,0.626968183 15.1693088,0.940069977 C15.8706497,1.25380893 16.4255511,1.65968163 16.8351896,2.1578155 C17.2441744,2.65658653 17.4489283,3.24736386 17.4489283,3.93116697 C17.4489283,4.58668004 17.3243239,5.14878505 17.0764226,5.61888376 C16.8276061,6.08885503 16.5132841,6.48083758 16.1338487,6.79393937 C15.8995454,6.65172464 15.5487442,6.50211881 15.0815758,6.34524933 C14.6137537,6.18901702 14.1019997,6.04616512 13.5469676,5.91796797 C12.9914124,5.78977082 12.4291891,5.68298233 11.8591208,5.59760252 C11.289314,5.51209527 10.7699765,5.46940537 10.3028081,5.46940537 C9.33826822,5.46940537 8.59299541,5.57619385 8.06685896,5.78977082 C7.54085327,6.00347522 7.27765429,6.33862284 7.27765429,6.79393937 C7.27765429,7.10767833 7.42357086,7.36407263 7.7161885,7.56312229 C8.00789089,7.76268167 8.563446,7.94758631 9.38220009,8.1186008 L10.7412116,8.41768502 C13.5469676,9.0446532 15.5418144,9.90647959 16.7256214,11.0027819 C17.9092977,12.0997213 18.5012012,13.5171537 18.5012012,15.2543143"></path>
                        </g>
                    </g>
                    <g id="编组" transform="translate(0.000000, 0.853216)">
                        <mask id="mask-2" fill="white">
                            <use xlink:href="#path-1"></use>
                        </mask>
                        <use id="Clip-7" stroke="#000000" stroke-width="3.36" fill="#FFFFFF" xlink:href="#path-1"></use>
                        <polygon id="Fill-6" fill="#FFFFFF" mask="url(#mask-2)" points="-2.36332818 28.2033801 28.699462 28.2033801 28.699462 -1.76297672 -2.36332818 -1.76297672"></polygon>
                    </g>
                </g>
            </g>
        </g>
    </g>
</svg>