<?xml version="1.0" encoding="UTF-8"?>
<svg width="16px" height="16px" viewBox="0 0 16 16" version="1.1" xmlns="http://www.w3.org/2000/svg" xmlns:xlink="http://www.w3.org/1999/xlink">
    <title>编组</title>
    <defs>
        <polygon id="path-1" points="0 0 16 0 16 16.0000022 0 16.0000022"></polygon>
    </defs>
    <g id="页面-1" stroke="none" stroke-width="1" fill="none" fill-rule="evenodd">
        <g id="Homepage" transform="translate(-1046.000000, -98.000000)">
            <g id="编组-7" transform="translate(349.000000, 84.000000)">
                <g id="编组-2" transform="translate(183.000000, 0.000000)">
                    <g id="编组" transform="translate(514.000000, 14.000000)">
                        <mask id="mask-2" fill="white">
                            <use xlink:href="#path-1"></use>
                        </mask>
                        <g id="Clip-2"></g>
                        <path d="M5.93391504,10.0661006 C3.66041159,10.0661006 1.81592965,8.22161866 1.81592965,5.94811522 C1.81592965,3.67470114 3.66041159,1.83024154 5.93391504,1.83024154 C8.20730678,1.83024154 10.0518781,3.67470114 10.0518781,5.94811522 C10.0518781,8.22161866 8.20730678,10.0661006 5.93391504,10.0661006 M11.4244654,10.0661006 L10.6952428,10.0661006 L10.4378701,9.80872791 C11.3386745,8.76498335 11.8677184,7.42092597 11.8677184,5.94811522 C11.8677184,2.65948652 9.20822291,-8.93655174e-06 5.91959421,-8.93655174e-06 C2.63096551,-8.93655174e-06 0,2.67380734 0,5.94811522 C0,9.2225348 2.65949546,11.8963287 5.94812415,11.8963287 C7.42091256,11.8963287 8.77929077,11.3530087 9.80873685,10.4665028 L10.0661095,10.7238532 L10.0661095,11.4387773 L14.641624,16.0000156 L16,14.6416374 C15.9856814,14.6416374 11.4244654,10.0661006 11.4244654,10.0661006" id="Fill-1" fill="#231916" mask="url(#mask-2)"></path>
                    </g>
                </g>
            </g>
        </g>
    </g>
</svg>